Coordinates
version=1
nRows=26
nColumns=27
inDegrees=yes

Units are S.I. units (second, meters, Newtons, ...)
If the header above contains a line with 'inDegrees', this indicates whether rotational values are in degrees (yes) or radians (no).

endheader
time	pelvis_rotation	pelvis_tilt	pelvis_list	pelvis_tx	pelvis_ty	pelvis_tz	hip_flexion_r	hip_adduction_r	hip_rotation_r	knee_angle_r	knee_rotation_r	knee_adduction_r	knee_angle_r_beta	ankle_angle_r	subtalar_angle_r	mtp_angle_r	hip_flexion_l	hip_adduction_l	hip_rotation_l	knee_angle_l	knee_rotation_l	knee_adduction_l	knee_angle_l_beta	ankle_angle_l	subtalar_angle_l	mtp_angle_l
      4.65500000	      8.05644522	    -28.67909242	      5.30152559	     -0.02661802	      0.59338775	     -1.16394990	     99.45369281	    -46.62292141	      9.38297267	     87.71419965	      0.00000000	      9.92299500	      1.53090158	     14.60728682	      0.00000000	      0.00000000	     97.24788612	    -26.96880630	      5.90494367	     82.30455932	      0.00000000	     -9.93724635	      1.43648555	     10.68391459	      0.00000000	      0.00000000
      4.66000000	      8.05125795	    -28.74336868	      5.27772671	     -0.02683369	      0.59220118	     -1.16396850	     99.74961917	    -46.64761904	      9.52591547	     87.90365542	      0.00000000	      9.92319987	      1.53420821	     14.60424137	      0.00000000	      0.00000000	     97.52392728	    -26.99400652	      6.03006062	     82.50367363	      0.00000000	     -9.93744518	      1.43996075	     10.71897953	      0.00000000	      0.00000000
      4.66500000	      8.10834929	    -28.78507996	      5.25846906	     -0.02698732	      0.59097628	     -1.16402975	    100.01406328	    -46.75538502	      9.64061720	     88.09832201	      0.00000000	      9.92347977	      1.53760578	     14.62543779	      0.00000000	      0.00000000	     97.80523744	    -26.94840766	      6.18602045	     82.71719632	      0.00000000	     -9.93750943	      1.44368742	     10.73770082	      0.00000000	      0.00000000
      4.67000000	      7.97645055	    -28.86632876	      5.21261859	     -0.02721960	      0.58980751	     -1.16397034	    100.33259303	    -46.62752016	      9.81811724	     88.29281575	      0.00000000	      9.92375641	      1.54100034	     14.65615087	      0.00000000	      0.00000000	     98.07182149	    -27.11820306	      6.26853191	     82.91967149	      0.00000000	     -9.93783715	      1.44722128	     10.80187039	      0.00000000	      0.00000000
      4.67500000	      7.90366574	    -28.97978022	      5.22499406	     -0.02748316	      0.58849761	     -1.16395197	    100.76906188	    -46.55122350	     10.07674215	     88.51200222	      0.00000000	      9.92395091	      1.54482587	     14.68407251	      0.00000000	      0.00000000	     98.38443867	    -27.23343959	      6.32784708	     83.14225831	      0.00000000	     -9.93813879	      1.45110616	     10.82863502	      0.00000000	      0.00000000
      4.68000000	      7.88742495	    -29.03858270	      5.20228145	     -0.02768754	      0.58725375	     -1.16394297	    101.07066735	    -46.55751275	     10.23404588	     88.71369343	      0.00000000	      9.92418313	      1.54834604	     14.72247141	      0.00000000	      0.00000000	     98.66398334	    -27.27813876	      6.44801514	     83.35253718	      0.00000000	     -9.93836564	      1.45477621	     10.86670248	      0.00000000	      0.00000000
      4.68500000	      7.86279724	    -29.09946860	      5.17400167	     -0.02786693	      0.58599944	     -1.16391356	    101.37055111	    -46.55469433	     10.38879445	     88.91789250	      0.00000000	      9.92444421	      1.55190999	     14.75913726	      0.00000000	      0.00000000	     98.94631051	    -27.33644707	      6.56961342	     83.56252760	      0.00000000	     -9.93858358	      1.45844124	     10.91240883	      0.00000000	      0.00000000
      4.69000000	      7.94712159	    -29.14838169	      5.10343412	     -0.02801047	      0.58466600	     -1.16387679	    101.58147275	    -46.69170159	     10.42735628	     89.12311501	      0.00000000	      9.92497660	      1.55549180	     14.77223446	      0.00000000	      0.00000000	     99.29653143	    -27.26948349	      6.81130829	     83.79316446	      0.00000000	     -9.93880112	      1.46246661	     10.94092153	      0.00000000	      0.00000000
      4.69500000	      7.82666872	    -29.24230505	      5.13463437	     -0.02828076	      0.58337264	     -1.16383702	    102.03665160	    -46.55766179	     10.73624456	     89.34761499	      0.00000000	      9.92506274	      1.55941006	     14.83098169	      0.00000000	      0.00000000	     99.55029693	    -27.44616120	      6.81089784	     83.99750423	      0.00000000	     -9.93907007	      1.46603301	     10.96550423	      0.00000000	      0.00000000
      4.70000000	      7.80790099	    -29.30409926	      5.11433132	     -0.02851062	      0.58199770	     -1.16382152	    102.38462387	    -46.55814701	     10.92981003	     89.56688257	      0.00000000	      9.92549879	      1.56323700	     14.79981587	      0.00000000	      0.00000000	     99.85298579	    -27.50019123	      6.93532670	     84.22645872	      0.00000000	     -9.93929354	      1.47002902	     11.02660650	      0.00000000	      0.00000000
      4.70500000	      7.81425759	    -29.34718833	      5.07283687	     -0.02860824	      0.58067460	     -1.16372565	    102.63698680	    -46.59837181	     11.04462582	     89.78543979	      0.00000000	      9.92572964	      1.56705154	     14.89955405	      0.00000000	      0.00000000	    100.14543932	    -27.53992295	      7.08485554	     84.43929856	      0.00000000	     -9.93965300	      1.47374378	     11.02378410	      0.00000000	      0.00000000
      4.71000000	      7.80909868	    -29.44401834	      5.04588591	     -0.02875810	      0.57927004	     -1.16361952	    102.99473564	    -46.61434933	     11.21114562	     90.02039637	      0.00000000	      9.92610136	      1.57115231	     14.96639728	      0.00000000	      0.00000000	    100.49694641	    -27.60500816	      7.22048033	     84.66657117	      0.00000000	     -9.93986334	      1.47771043	     11.01715898	      0.00000000	      0.00000000
      4.71500000	      7.76193512	    -29.46892941	      5.02495046	     -0.02896415	      0.57785718	     -1.16353823	    103.30818223	    -46.57607936	     11.41787982	     90.25229877	      0.00000000	      9.92636879	      1.57519977	     14.98545715	      0.00000000	      0.00000000	    100.75879913	    -27.69418065	      7.33467105	     84.88794169	      0.00000000	     -9.94025617	      1.48157408	     11.04814527	      0.00000000	      0.00000000
      4.72000000	      7.75092766	    -29.52908341	      4.99526768	     -0.02911022	      0.57641184	     -1.16343667	    103.63746337	    -46.58106624	     11.59937896	     90.49007159	      0.00000000	      9.92673754	      1.57934969	     15.01462847	      0.00000000	      0.00000000	    101.07878867	    -27.75674997	      7.47446053	     85.11831677	      0.00000000	     -9.94056806	      1.48559488	     11.05995179	      0.00000000	      0.00000000
      4.72500000	      7.76480251	    -29.56648044	      4.95765674	     -0.02922075	      0.57496038	     -1.16333886	    103.92219990	    -46.61767001	     11.75110442	     90.72591439	      0.00000000	      9.92706896	      1.58346592	     15.06802886	      0.00000000	      0.00000000	    101.38933891	    -27.79503162	      7.63401108	     85.34862124	      0.00000000	     -9.94087698	      1.48961445	     11.05666892	      0.00000000	      0.00000000
      4.73000000	      7.75616736	    -29.61730197	      4.94411146	     -0.02934450	      0.57346552	     -1.16323369	    104.26977416	    -46.62355605	     11.96299571	     90.97519553	      0.00000000	      9.92742965	      1.58781670	     15.09962448	      0.00000000	      0.00000000	    101.69318348	    -27.85841800	      7.76052990	     85.58046324	      0.00000000	     -9.94121098	      1.49366086	     11.08445278	      0.00000000	      0.00000000
      4.73500000	      7.75324969	    -29.66174233	      4.91555411	     -0.02942381	      0.57195339	     -1.16311106	    104.58923063	    -46.63549727	     12.15404711	     91.22690751	      0.00000000	      9.92777711	      1.59220990	     15.15855982	      0.00000000	      0.00000000	    102.00681215	    -27.92113440	      7.90532185	     85.81563861	      0.00000000	     -9.94153661	      1.49776544	     11.10310253	      0.00000000	      0.00000000
      4.74000000	      7.77037875	    -29.67375915	      4.87799727	     -0.02944482	      0.57046191	     -1.16300027	    104.85202795	    -46.68438995	     12.31118532	     91.47269225	      0.00000000	      9.92811964	      1.59649966	     15.19017779	      0.00000000	      0.00000000	    102.29336333	    -27.95984331	      8.06070931	     86.05370441	      0.00000000	     -9.94190857	      1.50192048	     11.09902917	      0.00000000	      0.00000000
      4.74500000	      7.77456435	    -29.71492038	      4.86423327	     -0.02951464	      0.56894642	     -1.16287688	    105.18246678	    -46.68792008	     12.52884276	     91.72433113	      0.00000000	      9.92847854	      1.60089158	     15.23362026	      0.00000000	      0.00000000	    102.59171803	    -28.00930738	      8.19919298	     86.28435930	      0.00000000	     -9.94223904	      1.50594616	     11.12481699	      0.00000000	      0.00000000
      4.75000000	      7.74295048	    -29.68977818	      4.82937368	     -0.02951361	      0.56744001	     -1.16271896	    105.41606051	    -46.66626893	     12.71886765	     91.97361956	      0.00000000	      9.92884880	      1.60524249	     15.27823369	      0.00000000	      0.00000000	    102.83193414	    -28.11249235	      8.32527514	     86.51858536	      0.00000000	     -9.94260653	      1.51003418	     11.11935115	      0.00000000	      0.00000000
      4.75500000	      7.79106117	    -29.74738830	      4.79125535	     -0.02948590	      0.56589582	     -1.16260904	    105.72709082	    -46.73634580	     12.89004593	     92.23145344	      0.00000000	      9.92914449	      1.60974254	     15.33196660	      0.00000000	      0.00000000	    103.17784748	    -28.11450837	      8.51248437	     86.76188859	      0.00000000	     -9.94294122	      1.51428062	     11.13859258	      0.00000000	      0.00000000
      4.76000000	      7.82297367	    -29.75133846	      4.77469646	     -0.02943730	      0.56435653	     -1.16248424	    106.00206441	    -46.77837226	     13.09722690	     92.48549978	      0.00000000	      9.92953744	      1.61417648	     15.40588679	      0.00000000	      0.00000000	    103.44960566	    -28.14125260	      8.65536228	     86.99458319	      0.00000000	     -9.94329605	      1.51834191	     11.12693367	      0.00000000	      0.00000000
      4.76500000	      7.89187633	    -29.74306033	      4.74104915	     -0.02931978	      0.56285570	     -1.16238436	    106.23186523	    -46.87817014	     13.25863261	     92.73694546	      0.00000000	      9.92987559	      1.61856504	     15.43727846	      0.00000000	      0.00000000	    103.71648557	    -28.12064039	      8.83003011	     87.23123998	      0.00000000	     -9.94357164	      1.52247235	     11.16554245	      0.00000000	      0.00000000
      4.77000000	      7.80698800	    -29.77731241	      4.70019564	     -0.02926552	      0.56133608	     -1.16221199	    106.52773372	    -46.78938602	     13.46197174	     92.98721583	      0.00000000	      9.93014372	      1.62293308	     15.47425195	      0.00000000	      0.00000000	    104.00308566	    -28.27760690	      8.95945871	     87.46828858	      0.00000000	     -9.94398145	      1.52660963	     11.17539346	      0.00000000	      0.00000000
      4.77500000	      7.81095524	    -29.76584152	      4.65843799	     -0.02914232	      0.55979497	     -1.16208182	    106.75923776	    -46.79720196	     13.64983335	     93.24612453	      0.00000000	      9.93040659	      1.62745189	     15.55150573	      0.00000000	      0.00000000	    104.26671748	    -28.33329976	      9.12266562	     87.71127255	      0.00000000	     -9.94431285	      1.53085050	     11.19857302	      0.00000000	      0.00000000
      4.78000000	      7.83767894	    -29.77722927	      4.63169919	     -0.02899566	      0.55827218	     -1.16196966	    107.02460910	    -46.83613362	     13.84423620	     93.50067061	      0.00000000	      9.93073653	      1.63189456	     15.60154103	      0.00000000	      0.00000000	    104.54463655	    -28.36246412	      9.27763685	     87.95068494	      0.00000000	     -9.94466075	      1.53502903	     11.22115102	      0.00000000	      0.00000000
